<svg width="48" height="48" viewBox="0 0 48 48" fill="none" xmlns="http://www.w3.org/2000/svg">
<rect width="48" height="48" rx="24" fill="#060606"/>
<g clip-path="url(#clip0_29_546)">
<g clip-path="url(#clip1_29_546)">
<path d="M24 12C27.3 12 27.7 12 29 12C30.3 12.1 31.1 12.3 31.9 12.6C32.7 12.9 33.3 13.3 34 14C34.7 14.7 35.1 15.4 35.3 16.2C35.6 17 35.8 17.8 35.9 19.1C36 20.3 36 20.7 36 24C36 27.3 36 27.7 35.9 28.9C35.8 30.2 35.6 31 35.3 31.8C35 32.6 34.6 33.2 33.9 33.9C33.3 34.6 32.6 35 31.8 35.3C31 35.6 30.2 35.8 28.9 35.9C27.7 36 27.3 36 24 36C20.7 36 20.3 36 19 36C17.7 35.9 16.9 35.7 16.1 35.4C15.3 35.1 14.7 34.7 14 34C13.3 33.3 12.9 32.6 12.7 31.8C12.4 31 12.2 30.2 12.1 28.9C12 27.7 12 27.3 12 24C12 20.7 12 20.3 12.1 19.1C12.1 17.8 12.3 16.9 12.6 16.1C12.9 15.4 13.3 14.7 14 14C14.7 13.3 15.4 12.9 16.1 12.6C16.9 12.3 17.8 12.1 19.1 12.1C20.3 12 20.7 12 24 12ZM24 14.2C20.8 14.2 20.4 14.2 19.2 14.2C18 14.3 17.3 14.5 16.9 14.6C16.4 14.9 16 15.1 15.5 15.5C15.1 15.9 14.8 16.3 14.6 16.9C14.5 17.3 14.3 18 14.3 19.2C14.2 20.4 14.2 20.8 14.2 24C14.2 27.2 14.2 27.5 14.3 28.8C14.3 29.9 14.5 30.6 14.7 31C14.9 31.6 15.2 32 15.6 32.4C16 32.8 16.4 33.1 17 33.3C17.4 33.5 18 33.6 19.2 33.7C20.4 33.8 20.8 33.8 24 33.8C27.2 33.8 27.5 33.8 28.8 33.7C29.9 33.7 30.6 33.5 31 33.3C31.6 33.1 32 32.8 32.4 32.4C32.8 32 33.1 31.6 33.3 31C33.5 30.6 33.6 30 33.7 28.8C33.8 27.6 33.8 27.2 33.8 24C33.8 20.8 33.8 20.5 33.7 19.2C33.7 18.1 33.5 17.4 33.3 17C33.1 16.4 32.8 16 32.4 15.6C32 15.2 31.6 14.9 31 14.7C30.6 14.5 30 14.4 28.8 14.3C27.6 14.2 27.2 14.2 24 14.2ZM24 17.8C27.4 17.8 30.2 20.6 30.2 24C30.2 27.4 27.4 30.2 24 30.2C20.6 30.2 17.8 27.4 17.8 24C17.8 20.6 20.6 17.8 24 17.8ZM24 28C26.2 28 28 26.2 28 24C28 21.8 26.2 20 24 20C21.8 20 20 21.8 20 24C20 26.2 21.8 28 24 28ZM30.4 19C29.6268 19 29 18.3732 29 17.6C29 16.8268 29.6268 16.2 30.4 16.2C31.1732 16.2 31.8 16.8268 31.8 17.6C31.8 18.3732 31.1732 19 30.4 19Z" fill="#888D93"/>
</g>
</g>
<defs>
<clipPath id="clip0_29_546">
<rect width="24" height="24" fill="white" transform="translate(12 12)"/>
</clipPath>
<clipPath id="clip1_29_546">
<rect width="24" height="24" fill="white" transform="translate(12 12)"/>
</clipPath>
</defs>
</svg>
