<svg width="48" height="48" viewBox="0 0 48 48" fill="none" xmlns="http://www.w3.org/2000/svg">
<rect width="48" height="48" rx="24" fill="#060606"/>
<g clip-path="url(#clip0_29_540)">
<path d="M19.5 33.8004C28.6 33.8004 33.5 26.3004 33.5 19.8004C33.5 19.6004 33.5 19.4004 33.5 19.2004C34.5 18.5004 35.3 17.6004 36 16.7004C35.1 17.1004 34.2 17.4004 33.2 17.5004C34.2 16.9004 35 15.9004 35.4 14.8004C34.4 15.4004 33.4 15.8004 32.3 16.0004C31.4 15.0004 30.1 14.4004 28.7 14.4004C26 14.4004 23.8 16.6004 23.8 19.3004C23.8 19.7004 23.8 20.1004 23.9 20.4004C19.7 20.1004 16.1 18.1004 13.7 15.1004C13.2 15.9004 13 16.7004 13 17.6004C13 19.3004 13.9 20.8004 15.2 21.7004C14.4 21.7004 13.6 21.5004 13 21.1004C13 21.1004 13 21.1004 13 21.2004C13 23.6004 14.7 25.6004 17 26.0004C16.6 26.1004 16.2 26.2004 15.7 26.2004C15.4 26.2004 15.1 26.2004 14.8 26.1004C15.4 28.1004 17.2 29.5004 19.4 29.5004C17.7 30.8004 15.6 31.6004 13.3 31.6004C12.9 31.6004 12.5 31.6004 12.1 31.5004C14.2 32.9004 16.8 33.8004 19.5 33.8004Z" fill="#888D93"/>
</g>
<defs>
<clipPath id="clip0_29_540">
<rect width="24" height="24" fill="white" transform="translate(12 12)"/>
</clipPath>
</defs>
</svg>
